<?xml version="1.0" encoding="UTF-8"?>
<!-- Generator: Adobe Illustrator 19.0.0, SVG Export Plug-In . SVG Version: 6.00 Build 0)  -->
<svg version="1.1" xmlns="http://www.w3.org/2000/svg" xmlns:xlink="http://www.w3.org/1999/xlink" x="0px" y="0px" viewBox="0 0 1920 1080" style="enable-background:new 0 0 1920 1080;" xml:space="preserve"><script xmlns=""/>
<style type="text/css">
	.st0{fill:url(#XMLID_100_);}
	.st1{fill:#0A0A1A;}
	.st2{fill:#11153A;}
	.st3{fill:#171C39;}
	.st4{fill:#0D0D2D;}
	.st5{fill:#E8E8E8;}
	.st6{fill:#CCCCCC;}
	.st7{fill:#939393;}
	.st8{fill:#696968;}
	.st9{fill:#FFFFFF;}
	.st10{fill:#ADADAD;}
	.st11{fill:#757596;}
</style>
<g id="Calque_1">
	
		<linearGradient id="XMLID_100_" gradientUnits="userSpaceOnUse" x1="990.8522" y1="-15253.3057" x2="929.1478" y2="-16430.6953" gradientTransform="matrix(1 0 0 -1 0 -15302)">
		<stop offset="0" style="stop-color:#11153B"/>
		<stop offset="1" style="stop-color:#00001C"/>
	</linearGradient>
	<rect id="XMLID_1_" class="st0" width="1920" height="1080"/>
</g>
<g id="Calque_4">
	<rect id="XMLID_97_" class="st1" width="1920" height="1080"/>
</g>
<g id="Calque_5">
	<path id="XMLID_13_" class="st2" d="M-94.4,184.6c386.1,84.7,710.6,104.3,942,105c193.6,0.6,400.1,0,666-61.5   c218.1-50.4,391.8-122.3,511.5-180l-6,312c-15,2-30,4-45,6c-702.7,93-1409.6,153.5-2120.9,181.5L-94.4,184.6z"/>
	<path id="XMLID_98_" class="st3" d="M-106.4,248.6c386.1,84.7,717.5,88.3,948.9,89c193.6,0.6,409.7-1.5,675.6-63   c218.1-50.4,387.3-120.8,507-178.5l-4.3,190.5c-15,2-34.7,13-49.7,15c-702.7,93-1403.6,178-2114.9,206L-106.4,248.6z"/>
</g>
<g id="montains">
	<polygon id="XMLID_5_" class="st4" points="1495.6,854.2 1525.5,896.7 1577.5,896.2 1546.2,937.8 1562.8,987.1 1513.6,970.3    1471.8,1001.2 1472.6,949.2 1430.3,919.1 1480,903.8  "/>
	<polygon id="XMLID_9_" class="st4" points="1690.6,906.6 1873.5,787.6 1755.1,906.6  "/>
	<polygon id="XMLID_10_" class="st4" points="304.6,847.1 318.1,808.6 318.1,859.6  "/>
	<polygon id="XMLID_11_" class="st4" points="117.1,847.1 139.6,787.6 139.6,833.3  "/>
	<polygon id="XMLID_8_" class="st4" points="477.1,859.6 466.6,800.3 490.6,834.1 490.6,741.1 507.1,808.6 514.6,859.6  "/>
	<path id="XMLID_14_" class="st4" d="M960,732.9c-39.6,0-77.3,6.3-111.8,17.8l-8.1,36.8l-10.5-12l-16.5,33l-7.5-8.2l-7.5,8.2v8.8   l-31.5,6.2v-21.8l-9,15.5l2.7-21.3c-59.7,44.4-97.2,108.3-97.2,179.5h55c0-109.1,108.3-197.6,241.8-197.6s241.8,88.5,241.8,197.6   h55C1256.8,841.5,1123.9,732.9,960,732.9z"/>
	<polygon id="XMLID_6_" class="st4" points="1273.7,879.1 1270.3,873.8 1268.8,876.4 1262.8,868.8 1262.8,873.9 1249.5,867.3    1253.5,874.8 1251.5,882 1265.3,906.3  "/>
	<path id="XMLID_12_" class="st4" d="M1445.7,879.1c0,0,3.8-2.3,2.8-7.3c5.5,0,5.3,3.7,5.3,3.7l7.5-3.7l-10.3,28L1445.7,879.1z"/>
	<path id="XMLID_3_" class="st4" d="M1339.7,896.3c0,0-5.3-9.1-11.3-10.6s-22,10.6-22,10.6l33.3,14.7V896.3z"/>
	<path id="XMLID_15_" class="st4" d="M977.6,661.1l2.1-7.1l2.7,10.3c0,0,5.7-10.7,14.3-9c8.7,1.7,7.7,14.3,7.7,14.3l12-14l11.3,14   l3.3-15.7l10,2.7l-2.1,9.3l23.5,2l-14-16.3l16,8.4V654l9.3,1.7v14c0,0,9.3-19.7,17.7-15c-7.9,5.4-10,9.7-8.7,15   c1.3,5.3-33.3,17.3-33.3,17.3l-71.7-11.3V661.1z"/>
	<path id="XMLID_18_" class="st4" d="M1154.1,897.8l-46-213.3c-3.1-14.5-13.2-24.5-24.6-24.5h-99.6c-12,0-22.4,11-25,26.4l-0.2,1.3   l3.8,13.3l-5.5-2.8l-2.1,12.6L960,723v7.5L949.1,745l-3.8,22.6l6.9,26.9l-12.4,6l-3.9,23.5l3.1,13.5h-5.3l-10.4,62.2   c-3.5,21,8.6,40.8,25,40.8h181.2C1146.5,940.6,1158.7,919.3,1154.1,897.8z"/>
	<path id="XMLID_17_" class="st4" d="M705.5,901.6l-19-57.5l-12.2-3.1l-7.5-56.8l-10.5-32c-3.3-10.1-14.1-17.1-26.4-17.1H523.3   c-12.9,0-24,7.7-26.8,18.5L458.3,903c-3.8,14.7,9.3,28.6,26.8,28.6h194.1C697.4,931.6,710.5,916.6,705.5,901.6z"/>
	<path id="XMLID_4_" class="st4" d="M538.5,735.1V725h5.8v10.1h4.3v-2.2h9.8l3-4.7l2.5,4.7h6.8V727l8.5-0.3v6.2h8.8h12.8v-13.7   l2.8-2l-3-3.8l-0.8-5l8.5,3.8l2.5,5.8v9v5.9h15c0,0,2-5.7,11.8-7.4s8,13.6,8,13.6l-15.7,12.4l-89.5-3.3l-29.3-3.3   c0,0,3.8-16.5-4.5-18.3c12,0.8,13.3,9.5,13.3,9.5L538.5,735.1z"/>
	<circle id="XMLID_2_" class="st4" cx="589.7" cy="736.8" r="8.8"/>
	<circle id="XMLID_16_" class="st4" cx="841.5" cy="882.5" r="12.5"/>
	<ellipse id="XMLID_19_" class="st4" cx="397.8" cy="880.5" rx="49.3" ry="10.5"/>
	<ellipse id="XMLID_20_" class="st4" cx="189" cy="878.9" rx="3" ry="19.4"/>
	<ellipse id="XMLID_21_" class="st4" cx="47.5" cy="879" rx="18.5" ry="84"/>
	<polygon id="XMLID_22_" class="st4" points="55.3,829.5 64.8,811.5 62.8,831.4 66,838 66,847.1 62.8,852.5  "/>
	<ellipse id="XMLID_23_" class="st4" cx="1601.5" cy="879.1" rx="5" ry="88.9"/>
	<ellipse id="XMLID_24_" class="st4" cx="1606" cy="848.3" rx="4.5" ry="12.8"/>
	<path id="XMLID_27_" class="st4" d="M246.2,805.8l1.3,2.8l-3.3-1.4l3.3,8.7L236,805.3l1.2,4.5l-9.2-7.1c-5.6-0.6-11.3-0.9-17.1-0.9   c-70.8,0-128.2,46.9-128.2,104.8h23.8c0-47.1,46.8-85.4,104.5-85.4s104.5,38.2,104.5,85.4h23.8   C339.1,858.7,299.8,818.3,246.2,805.8z"/>
	<path id="XMLID_101_" class="st4" d="M1878.7,879.1c-6.6,6.6-14,13.1-20.1,15.9c-9,4.1-62.9-6.6-104.8-15.9H1687   c-4.4,3.3-8.9,6.7-12.7,9.7c-0.4,2.5-1.8,4.7-4.8,6.2c-7.4,4-3-0.1,4.8-6.2c0.4-2.9-0.6-6.2-2.4-9.7h-82.3l-18.6,7.7l-18-7.7   h-107.4c-18.4,10.8-50,18-86,18c-36,0-67.6-7.2-86-18H897.6l-6.5,19.2l-8.5-19.2h-60.4l-27.1,27.2l11.7-27.2H253.4   c-4.9,4.1-8.7,8.3-9.3,11.9c-1.4,8.1-38.9-3.5-63.2-11.9h-29.8l-10,7.7l-6.5-7.7H0V1080h1920V879.1H1878.7z"/>
</g>
<g id="stars">
	<circle id="XMLID_7_" class="st5" cx="331.6" cy="136.6" r="1.5"/>
	<ellipse id="XMLID_25_" class="st5" cx="610.6" cy="113.4" rx="3" ry="2.2"/>
	<ellipse id="XMLID_26_" class="st5" cx="876.8" cy="163.6" rx="2.2" ry="1.5"/>
	<circle id="XMLID_28_" class="st5" cx="672.6" cy="287.1" r="0.5"/>
	<circle id="XMLID_29_" class="st5" cx="1323.5" cy="162.6" r="0.5"/>
	<circle id="XMLID_30_" class="st5" cx="1526.1" cy="183.6" r="0.5"/>
	<circle id="XMLID_31_" class="st5" cx="282.6" cy="311.1" r="0.5"/>
	<circle id="XMLID_32_" class="st5" cx="140.1" cy="195.6" r="0.5"/>
	<circle id="XMLID_33_" class="st5" cx="413.1" cy="78.6" r="0.5"/>
	<circle id="XMLID_34_" class="st5" cx="432.6" cy="287.1" r="0.5"/>
	<circle id="XMLID_35_" class="st5" cx="293.1" cy="471.6" r="0.5"/>
	<circle id="XMLID_36_" class="st5" cx="117.6" cy="506.1" r="0.5"/>
	<circle id="XMLID_37_" class="st5" cx="551.1" cy="621.6" r="0.5"/>
	<circle id="XMLID_38_" class="st5" cx="1011.6" cy="585.6" r="0.5"/>
	<circle id="XMLID_39_" class="st5" cx="1155.6" cy="79.6" r="0.5"/>
	<circle id="XMLID_40_" class="st5" cx="1550.1" cy="72.6" r="0.5"/>
	<circle id="XMLID_41_" class="st5" cx="1754.1" cy="449.1" r="0.5"/>
	<circle id="XMLID_42_" class="st5" cx="1155.6" cy="275.1" r="0.5"/>
	<circle id="XMLID_43_" class="st5" cx="829.5" cy="380.1" r="0.5"/>
	<circle id="XMLID_44_" class="st5" cx="521.1" cy="450.1" r="0.5"/>
	<circle id="XMLID_45_" class="st5" cx="1113.6" cy="402.6" r="0.5"/>
	<circle id="XMLID_46_" class="st5" cx="960.5" cy="93.6" r="0.5"/>
	<circle id="XMLID_47_" class="st5" cx="756.6" cy="73.6" r="0.5"/>
	<circle id="XMLID_48_" class="st5" cx="522.1" cy="72.6" r="0.5"/>
	<circle id="XMLID_49_" class="st5" cx="1775" cy="276.1" r="0.5"/>
	<circle id="XMLID_50_" class="st5" cx="1476.6" cy="459.6" r="0.5"/>
	<circle id="XMLID_51_" class="st5" cx="1323.5" cy="417.6" r="0.5"/>
	<circle id="XMLID_52_" class="st5" cx="923.2" cy="435.6" r="0.5"/>
	<circle id="XMLID_53_" class="st5" cx="686.1" cy="548.1" r="0.5"/>
	<circle id="XMLID_54_" class="st5" cx="961.5" cy="257.1" r="0.5"/>
	<circle id="XMLID_55_" class="st5" cx="1416.6" cy="288.1" r="0.5"/>
	<circle id="XMLID_56_" class="st6" cx="1587.6" cy="540.5" r="0.5"/>
	<circle id="XMLID_57_" class="st6" cx="243.6" cy="652.2" r="0.5"/>
	<circle id="XMLID_58_" class="st6" cx="363.6" cy="752" r="0.5"/>
	<circle id="XMLID_59_" class="st7" cx="842" cy="660.6" r="0.5"/>
	<circle id="XMLID_60_" class="st7" cx="1306.8" cy="687.5" r="0.5"/>
	<circle id="XMLID_61_" class="st7" cx="1551.1" cy="767.1" r="0.5"/>
	<circle id="XMLID_62_" class="st7" cx="1737.6" cy="746.2" r="0.5"/>
	<circle id="XMLID_63_" class="st8" cx="1355.1" cy="790.6" r="0.5"/>
	<circle id="XMLID_64_" class="st8" cx="117.6" cy="753" r="0.5"/>
	<circle id="XMLID_65_" class="st8" cx="731.1" cy="768.1" r="0.5"/>
	<circle id="XMLID_66_" class="st8" cx="1391.1" cy="817.8" r="0.5"/>
	<circle id="XMLID_67_" class="st8" cx="1731.6" cy="836" r="0.5"/>
	<circle id="XMLID_68_" class="st8" cx="1881.5" cy="660.6" r="0.5"/>
	<circle id="XMLID_69_" class="st9" cx="1815.5" cy="507.1" r="0.5"/>
	<circle id="XMLID_70_" class="st9" cx="1816.5" cy="93.6" r="0.5"/>
	<circle id="XMLID_71_" class="st9" cx="1163.1" cy="27.6" r="0.5"/>
	<circle id="XMLID_72_" class="st9" cx="545.1" cy="28.6" r="0.5"/>
	<circle id="XMLID_73_" class="st9" cx="339.6" cy="240.6" r="0.5"/>
	<circle id="XMLID_74_" class="st9" cx="141.1" cy="302.1" r="0.5"/>
	<circle id="XMLID_75_" class="st9" cx="386.1" cy="402.6" r="0.5"/>
	<circle id="XMLID_76_" class="st9" cx="582.6" cy="366.6" r="0.5"/>
	<circle id="XMLID_79_" class="st9" cx="1646.3" cy="221.4" r="3.7"/>
	<ellipse id="XMLID_80_" class="st9" cx="1653.8" cy="301.6" rx="3.7" ry="0"/>
	<circle id="XMLID_81_" class="st9" cx="1365.1" cy="340.6" r="3"/>
	<circle id="XMLID_82_" class="st9" cx="221.1" cy="363.6" r="3.5"/>
	<circle id="XMLID_77_" class="st9" cx="774.1" cy="450.1" r="1.5"/>
	<ellipse id="XMLID_84_" class="st9" cx="1261.6" cy="450.1" rx="0" ry="1.5"/>
	<circle id="XMLID_78_" class="st9" cx="1048.1" cy="361.1" r="1"/>
	<circle id="XMLID_83_" class="st9" cx="1301.6" cy="95.1" r="1"/>
	<circle id="XMLID_85_" class="st9" cx="1702.1" cy="128.6" r="1"/>
	<circle id="XMLID_86_" class="st9" cx="507.3" cy="248.6" r="1"/>
	<circle id="XMLID_87_" class="st9" cx="118.1" cy="430.1" r="1"/>
	<circle id="XMLID_88_" class="st9" cx="43.1" cy="248.6" r="1"/>
	<circle id="XMLID_89_" class="st9" cx="1257.8" cy="595.1" r="1"/>
	<circle id="XMLID_90_" class="st10" cx="1570.1" cy="571.1" r="1"/>
	<circle id="XMLID_91_" class="st10" cx="467.6" cy="541" r="1"/>
	<circle id="XMLID_92_" class="st10" cx="83.6" cy="573.1" r="1"/>
	<circle id="XMLID_93_" class="st10" cx="1039.9" cy="479.6" r="1"/>
	<circle id="XMLID_94_" class="st11" cx="1654.8" cy="388.1" r="1"/>
	<circle id="XMLID_95_" class="st11" cx="855" cy="472.1" r="1"/>
	<circle id="XMLID_96_" class="st11" cx="1411.1" cy="575.1" r="1"/>
</g>
</svg>